<svg width="14" height="31" viewBox="0 0 14 31" fill="none" xmlns="http://www.w3.org/2000/svg">
<path d="M6.6816 30.168V27.3168C4.704 27.2208 3.216 26.5872 2.2176 25.416C1.2384 24.2256 0.7104 22.4016 0.6336 19.944L5.04 19.2816C5.0592 20.28 5.1456 21.0864 5.2992 21.7008C5.4528 22.3152 5.6736 22.7568 5.9616 23.0256C6.2688 23.2944 6.6336 23.4288 7.056 23.4288C7.5936 23.4288 7.9392 23.2464 8.0928 22.8816C8.2656 22.5168 8.352 22.1328 8.352 21.7296C8.352 20.7696 8.1216 19.9632 7.6608 19.3104C7.2192 18.6384 6.6048 17.9664 5.8176 17.2944L3.7728 15.5376C3.1968 15.0192 2.6688 14.4912 2.1888 13.9536C1.728 13.3968 1.3536 12.7632 1.0656 12.0528C0.7776 11.3232 0.6336 10.4592 0.6336 9.4608C0.6336 7.6368 1.152 6.2064 2.1888 5.1696C3.2448 4.1328 4.656 3.5472 6.4224 3.4128V0.6768H7.8912V3.384C9.0048 3.4416 9.8976 3.7008 10.5696 4.1616C11.2416 4.6032 11.7408 5.16 12.0672 5.832C12.4128 6.4848 12.6432 7.1856 12.7584 7.9344C12.8928 8.664 12.9696 9.3456 12.9888 9.9792L8.5248 10.5264C8.5056 9.8352 8.4576 9.2304 8.3808 8.712C8.3232 8.1936 8.1888 7.8 7.9776 7.5312C7.7856 7.2432 7.4688 7.1088 7.0272 7.128C6.5472 7.128 6.192 7.3296 5.9616 7.7328C5.7312 8.136 5.616 8.5392 5.616 8.9424C5.616 9.864 5.8464 10.6128 6.3072 11.1888C6.7872 11.7456 7.3056 12.2736 7.8624 12.7728L9.8208 14.472C10.4736 15.0672 11.0688 15.7008 11.6064 16.3728C12.1632 17.0448 12.6048 17.7936 12.9312 18.6192C13.2576 19.4448 13.4208 20.3952 13.4208 21.4704C13.4208 22.488 13.2096 23.4192 12.7872 24.264C12.3648 25.1088 11.76 25.8 10.9728 26.3376C10.1856 26.856 9.2448 27.1728 8.1504 27.288V30.168H6.6816Z" fill="#86C232"/>
</svg>
