<svg width="16" height="16" viewBox="0 0 16 16" fill="none" xmlns="http://www.w3.org/2000/svg">
<path d="M0 7.83126C0 5.75426 0.842855 3.76233 2.34315 2.29367C3.84344 0.825005 5.87827 -8.01086e-05 8 -8.01086e-05C10.1217 -8.01086e-05 12.1566 0.825005 13.6569 2.29367C15.1571 3.76233 16 5.75426 16 7.83126C16 9.90826 15.1571 11.9002 13.6569 13.3689C12.1566 14.8375 10.1217 15.6626 8 15.6626C5.87827 15.6626 3.84344 14.8375 2.34315 13.3689C0.842855 11.9002 0 9.90826 0 7.83126ZM7.53125 4.12973C7.2375 3.84217 6.7625 3.84217 6.47188 4.12973C6.18125 4.41728 6.17813 4.88227 6.47188 5.16677L9.19063 7.8282L6.47188 10.4896C6.17813 10.7772 6.17813 11.2422 6.47188 11.5267C6.76563 11.8112 7.24062 11.8142 7.53125 11.5267L10.7812 8.35131C11.075 8.06375 11.075 7.59877 10.7812 7.31427L7.53125 4.12973Z" fill="#86C232"/>
</svg>
