<svg width="16" height="17" viewBox="0 0 16 17" fill="none" xmlns="http://www.w3.org/2000/svg">
<path d="M0 8.2705C0 10.3995 0.842855 12.4413 2.34315 13.9467C3.84344 15.4521 5.87827 16.2978 8 16.2978C10.1217 16.2978 12.1566 15.4521 13.6569 13.9467C15.1571 12.4413 16 10.3995 16 8.2705C16 6.14152 15.1571 4.09973 13.6569 2.59432C12.1566 1.0889 10.1217 0.243164 8 0.243164C5.87827 0.243164 3.84344 1.0889 2.34315 2.59432C0.842855 4.09973 0 6.14152 0 8.2705ZM8.78125 12.3155C8.4875 12.6103 8.0125 12.6103 7.72188 12.3155C7.43125 12.0208 7.42813 11.5441 7.72188 11.2525L9.94063 9.0262L4.25 9.02306C3.83437 9.02306 3.5 8.68754 3.5 8.2705C3.5 7.85345 3.83437 7.51794 4.25 7.51794H9.94063L7.72188 5.29161C7.42813 4.99685 7.42813 4.52023 7.72188 4.22861C8.01563 3.93699 8.49062 3.93386 8.78125 4.22861L12.2812 7.73743C12.575 8.03219 12.575 8.50881 12.2812 8.80043L8.78125 12.3155Z" fill="#86C232"/>
</svg>
