<svg width="60" height="60" viewBox="0 0 60 60" fill="none" xmlns="http://www.w3.org/2000/svg">
<path d="M57.4468 29.2863V27.7092C57.4468 12.8937 45.1346 0.841064 30 0.841064C24.0783 0.841064 18.4483 2.65335 13.7209 6.08388C12.8707 6.70017 12.6911 7.87417 13.322 8.70526C13.9503 9.53515 15.1471 9.71211 15.9998 9.09579C20.064 6.14856 24.9061 4.59011 30 4.59011C43.0228 4.59011 53.617 14.961 53.617 27.7092V28.3341H47.8723C46.8152 28.3341 45.9574 29.1737 45.9574 30.2086C45.9574 31.2435 46.8152 32.0831 47.8723 32.0831H54.2553C55.31 32.0831 56.1702 32.9252 56.1702 33.9576C56.1702 34.9901 55.31 35.8322 54.2553 35.8322H33.6104C32.4335 35.8322 31.2841 36.2983 30.4513 37.1136L24.2877 43.1472C24.1681 43.2643 24.0035 43.3302 23.8364 43.3302H5.74468C4.68998 43.3302 3.82979 42.4882 3.82979 41.4557C3.82979 40.4233 4.68998 39.5812 5.74468 39.5812H21.2833C22.4601 39.5812 23.6095 39.115 24.4423 38.2998L30.6059 32.2662C30.7256 32.1502 30.8901 32.0831 31.0572 32.0831H40.2128C41.2699 32.0831 42.1277 31.2435 42.1277 30.2086C42.1277 29.1737 41.2699 28.3341 40.2128 28.3341H31.0572C29.8803 28.3341 28.7309 28.8015 27.8981 29.6155L21.7346 35.6491C21.6149 35.7662 21.4503 35.8322 21.2833 35.8322H8.23085C7.02049 33.2432 6.38298 30.5177 6.38298 27.7092C6.38298 22.7203 7.97374 17.9802 10.9857 14.0042C11.6165 13.1719 11.437 11.9979 10.5868 11.3816C9.74152 10.7653 8.53974 10.9398 7.90892 11.7709C4.40576 16.3986 2.55319 21.9099 2.55319 27.7092C2.55319 30.5771 3.11341 33.3697 4.18243 36.0704C1.77746 36.7421 0 38.8895 0 41.4557C0 44.5555 2.57814 47.0793 5.74468 47.0793H16.7022L28.0851 53.7651V55.8271H27.4468C26.3896 55.8271 25.5319 56.6667 25.5319 57.7016C25.5319 58.7365 26.3896 59.5761 27.4468 59.5761H30H37.6596H40.2128C41.2699 59.5761 42.1277 58.7365 42.1277 57.7016C42.1277 56.6667 41.2699 55.8271 40.2128 55.8271H39.5745V39.5812H54.2553C57.4219 39.5812 60 37.0574 60 33.9576C60 32.0125 58.9846 30.2965 57.4468 29.2863ZM24.1043 47.053C25.1856 46.9878 26.2266 46.5505 26.9955 45.7979L28.0851 44.7313V49.3912L24.1043 47.053ZM35.7447 55.8271H31.9149V40.9822L33.1591 39.7643C33.2788 39.6471 33.4433 39.5812 33.6104 39.5812H35.7447V55.8271Z" fill="#86C232"/>
</svg>
