<svg width="60" height="60" viewBox="0 0 60 60" fill="none" xmlns="http://www.w3.org/2000/svg">
<path d="M58.0851 0.841064H50.4255C49.3788 0.841064 48.5106 1.69077 48.5106 2.71559V3.34043H27.4468C26.4001 3.34043 25.5319 4.19014 25.5319 5.21495C25.5319 6.23961 26.4001 7.08947 27.4468 7.08947H48.5106V18.3366H14.0426V7.08947H19.7872C20.834 7.08947 21.7021 6.23961 21.7021 5.21495C21.7021 4.19014 20.834 3.34043 19.7872 3.34043H12.1277C11.0809 3.34043 10.2128 4.19014 10.2128 5.21495V5.83979H3.82979V5.21495C3.82979 4.19014 2.96163 3.34043 1.91489 3.34043C0.868162 3.34043 0 4.19014 0 5.21495V20.2111C0 21.2358 0.868162 22.0857 1.91489 22.0857C2.96163 22.0857 3.82979 21.2358 3.82979 20.2111V19.5863H10.2128V20.2111C10.2128 21.2358 11.0809 22.0857 12.1277 22.0857H15.4723C16.0595 26.6345 18.8681 30.5834 22.9787 32.8079C23.0298 35.5821 24.7404 37.9566 27.1915 39.0062L18.6127 55.8271H14.6809C13.6341 55.8271 12.766 56.6768 12.766 57.7016C12.766 58.7262 13.6341 59.5761 14.6809 59.5761H19.7872C20.5022 59.5761 21.1659 59.1761 21.4978 58.5263L28.0851 45.6546V57.7016C28.0851 58.7262 28.9533 59.5761 30 59.5761C31.0467 59.5761 31.9149 58.7262 31.9149 57.7016V45.6546L38.5022 58.5262C38.8341 59.1761 39.4978 59.5761 40.2128 59.5761H45.3191C46.3659 59.5761 47.234 58.7262 47.234 57.7016C47.234 56.6768 46.3659 55.8271 45.3191 55.8271H41.3873L32.8084 39.0062C35.2595 37.9566 36.9957 35.5573 37.0213 32.7578C38.2467 32.1081 39.4212 31.3582 40.3915 30.3836C42.6893 28.1091 44.0681 25.2099 44.5021 22.0857H48.5106V22.7105C48.5106 23.7352 49.3788 24.585 50.4255 24.585H58.0851C59.1318 24.585 60 23.7352 60 22.7105V2.71559C60 1.69077 59.1318 0.841064 58.0851 0.841064ZM10.2128 15.8372H3.82979V9.58884H10.2128V15.8372ZM30 35.8322C28.2383 35.8322 26.8085 34.4325 26.8085 32.7079C26.8085 30.9834 28.2383 29.5837 30 29.5837C31.7617 29.5837 33.1915 30.9834 33.1915 32.7079C33.1915 34.4325 31.7617 35.8322 30 35.8322ZM37.6851 27.7342C37.1745 28.234 36.5617 28.684 35.949 29.0838C34.698 27.1343 32.5021 25.8347 30 25.8347C27.4979 25.8347 25.3021 27.1343 24.051 29.0838C21.5745 27.4842 19.8639 24.9598 19.3277 22.0857H40.6723C40.2894 24.2101 39.2681 26.1596 37.6851 27.7342ZM56.1702 20.836H52.3404V4.59011H56.1702V20.836Z" fill="#86C232"/>
</svg>
