<svg width="40" height="57" viewBox="0 0 40 57" fill="none" xmlns="http://www.w3.org/2000/svg">
<path d="M38.1818 27.8788C39.1757 27.8788 40 27.0545 40 26.0606V21.2121C40 18.8848 38.0849 16.9697 35.7576 16.9697H32.7273V10.9091H33.3333C34.3272 10.9091 35.1515 10.0848 35.1515 9.09091C35.1515 8.0969 34.3272 7.27273 33.3333 7.27273H28.7515C28.9697 6.69093 29.0909 6.08487 29.0909 5.45455C29.0909 2.44851 26.6424 0 23.6364 0C20.6303 0 18.1818 2.44851 18.1818 5.45455C18.1818 6.08487 18.303 6.69093 18.5212 7.27273H11.5152C11.0303 7.27273 10.5697 7.46657 10.2302 7.80599L7.80599 10.2302C7.10303 10.9333 7.10301 12.0969 7.80594 12.7999C8.488 13.482 9.66563 13.5101 10.3758 12.7999L12.2667 10.9091H14.5455V16.9697H6.66667C2.98177 16.9697 0 19.9515 0 23.6364V38.1818C0 39.1757 0.824315 40 1.81818 40C2.81205 40 3.63636 39.1757 3.63636 38.1818V23.6364C3.63636 21.9636 4.99394 20.6061 6.66667 20.6061H7.34553C7.29699 20.7999 7.27273 20.9939 7.27273 21.2121V52.7273C7.27273 55.0544 9.18783 56.9697 11.5152 56.9697H35.7576C38.0849 56.9697 40 55.0544 40 52.7273V33.3333C40 32.3393 39.1757 31.5152 38.1818 31.5152C37.188 31.5152 36.3636 32.3393 36.3636 33.3333V36.3636H10.9091V21.2121C10.9091 20.8727 11.1757 20.6061 11.5152 20.6061H35.7576C36.097 20.6061 36.3636 20.8727 36.3636 21.2121V26.0606C36.3636 27.0545 37.188 27.8788 38.1818 27.8788ZM36.3636 52.7273C36.3636 53.0667 36.097 53.3333 35.7576 53.3333H11.5152C11.1757 53.3333 10.9091 53.0667 10.9091 52.7273V49.697H36.3636V52.7273ZM36.3636 40V46.0606H10.9091V40H36.3636ZM23.6364 3.63636C24.6302 3.63636 25.4545 4.46053 25.4545 5.45455C25.4545 6.44841 24.6302 7.27273 23.6364 7.27273C22.6425 7.27273 21.8182 6.44841 21.8182 5.45455C21.8182 4.46053 22.6425 3.63636 23.6364 3.63636ZM29.0909 16.9697H18.1818V10.9091H29.0909V16.9697Z" fill="white"/>
</svg>
