<svg width="60" height="73" viewBox="0 0 60 73" fill="none" xmlns="http://www.w3.org/2000/svg">
<path d="M57.6923 13.8462C58.9663 13.8462 60 12.8125 60 11.5385V5.41166C60 2.42788 57.5841 0 54.6154 0H5.38462C2.41588 0 0 2.42788 0 5.41166V50.3335C0 52.1424 0.892431 53.8251 2.38883 54.8317L27.0042 71.3912C28.7891 72.592 31.2113 72.5915 32.9958 71.3912L57.6112 54.8317C59.1076 53.8251 60 52.1424 60 50.3335V20.7692C60 19.4952 58.9663 18.4615 57.6923 18.4615C56.4183 18.4615 55.3846 19.4952 55.3846 20.7692V50.3335C55.3846 50.604 55.2524 50.8564 55.033 51.0036L30.4177 67.5631C30.1653 67.7374 29.8347 67.7314 29.5823 67.5631L4.96695 51.0036C4.7476 50.8564 4.61538 50.604 4.61538 50.3335V5.41166C4.61538 4.97295 4.96092 4.61539 5.38462 4.61539H54.6154C55.0391 4.61539 55.3846 4.97295 55.3846 5.41166V11.5385C55.3846 12.8125 56.4183 13.8462 57.6923 13.8462Z" fill="#86C232"/>
<path d="M11.5384 39.9999C10.2644 39.9999 9.23071 41.0336 9.23071 42.3076V47.0793C9.23071 47.8485 9.61231 48.5636 10.2493 48.9933L28.7109 61.4152C29.4563 61.9166 30.5475 61.954 31.289 61.4152L49.7505 48.9933C50.3875 48.5636 50.7691 47.8485 50.7691 47.0793V11.5384C50.7691 10.2644 49.7355 9.23071 48.4615 9.23071H11.5384C10.2644 9.23071 9.23071 10.2644 9.23071 11.5384V33.0769C9.23071 34.3509 10.2644 35.3846 11.5384 35.3846C12.8124 35.3846 13.8461 34.3509 13.8461 33.0769V13.8461H46.1538V45.8503L29.9999 56.7187L13.8461 45.8503V42.3076C13.8461 41.0336 12.8124 39.9999 11.5384 39.9999Z" fill="#86C232"/>
<path d="M28.72 28.8429C29.4798 29.3494 30.5202 29.3494 31.28 28.8429L40.5108 22.6891C41.5715 21.983 41.857 20.5497 41.1508 19.489C40.4447 18.4283 39.0144 18.1428 37.9507 18.8489L30 24.1494L22.0493 18.8489C20.9886 18.1428 19.5553 18.4283 18.8492 19.489C18.1431 20.5497 18.4285 21.983 19.4892 22.6891L28.72 28.8429Z" fill="#86C232"/>
<path d="M19.4892 31.9201L28.72 38.0739C29.483 38.5825 30.5174 38.5823 31.2801 38.0739L40.5108 31.9201C41.5715 31.2139 41.857 29.7806 41.1509 28.7199C40.4447 27.6592 39.0144 27.3738 37.9507 28.0799L30 33.3804L22.0493 28.0799C20.9886 27.3738 19.5553 27.6592 18.8492 28.7199C18.1431 29.7806 18.4285 31.2139 19.4892 31.9201Z" fill="#86C232"/>
<path d="M19.4892 41.1509L28.72 47.3048C29.4832 47.8133 30.517 47.8135 31.2801 47.3048L40.5108 41.1509C41.5715 40.4448 41.857 39.0115 41.1509 37.9508C40.4447 36.8901 39.0144 36.6077 37.9507 37.3108L30 42.6113L22.0493 37.3108C20.9886 36.6076 19.5553 36.8901 18.8492 37.9508C18.1431 39.0115 18.4285 40.4448 19.4892 41.1509Z" fill="#86C232"/>
</svg>
