<svg width="60" height="60" viewBox="0 0 60 60" fill="none" xmlns="http://www.w3.org/2000/svg">
<path d="M24.2553 49.2776V25.2062C24.2553 24.1813 23.3872 23.3315 22.3404 23.3315H21.7021V15.7076C21.7021 10.0584 19.1234 4.78411 14.6042 1.23468C13.8894 0.709859 12.9191 0.709859 12.2043 1.23468C7.68513 4.78413 5.10638 10.0584 5.10638 15.7076V23.3315H4.46808C3.42135 23.3315 2.55319 24.1813 2.55319 25.2062V32.7051C2.55319 33.7299 3.42135 34.5798 4.46808 34.5798C5.51482 34.5798 6.38298 33.7299 6.38298 32.7051V27.0809H20.4255V40.8289H6.38298V40.204C6.38298 39.1791 5.51482 38.3293 4.46808 38.3293C3.42135 38.3293 2.55319 39.1791 2.55319 40.204V49.2776C1.02133 50.3024 0 52.0022 0 53.9519C0 57.0515 2.57875 59.5761 5.74468 59.5761H12.1277C13.1744 59.5761 14.0426 58.7262 14.0426 57.7014C14.0426 56.6765 13.1744 55.8267 12.1277 55.8267H5.74468C4.69795 55.8267 3.82979 54.9767 3.82979 53.9519C3.82979 52.927 4.69795 52.0772 5.74468 52.0772H21.0638C22.1106 52.0772 22.9787 52.927 22.9787 53.9519C22.9787 54.9767 22.1106 55.8267 21.0638 55.8267H19.7872C18.7405 55.8267 17.8723 56.6765 17.8723 57.7014C17.8723 58.7262 18.7405 59.5761 19.7872 59.5761H21.0638C24.2298 59.5761 26.8085 57.0515 26.8085 53.9519C26.8085 52.0022 25.7872 50.3024 24.2553 49.2776ZM17.8723 23.3315H8.93617V19.582H17.8723V23.3315ZM17.8723 15.8326H8.93617V15.7076C8.93617 11.7332 10.5447 7.98373 13.4043 5.20917C16.2638 7.98373 17.8723 11.7332 17.8723 15.7076V15.8326ZM20.4255 48.3278H6.38298V44.5783H20.4255V48.3278Z" fill="#86C232"/>
<path d="M58.085 29.5808C59.1318 29.5808 59.9999 28.7309 59.9999 27.7061V21.457C59.9999 14.2331 54 8.33398 46.5957 8.33398C39.1914 8.33398 33.1914 14.2331 33.1914 21.457V42.7039C33.1914 43.7287 34.0596 44.5786 35.1063 44.5786H35.7446V48.3281H35.1063C34.0596 48.3281 33.1914 49.1779 33.1914 50.2028V57.7017C33.1914 58.7264 34.0596 59.5764 35.1063 59.5764H40.2127C41.2594 59.5764 42.1276 58.7264 42.1276 57.7017C42.1276 56.6767 41.2594 55.8269 40.2127 55.8269H37.0212V52.0775H56.1701V55.8269H47.8723C46.8255 55.8269 45.9574 56.6767 45.9574 57.7017C45.9574 58.7264 46.8255 59.5764 47.8723 59.5764H58.085C59.1318 59.5764 59.9999 58.7264 59.9999 57.7017V50.2028C59.9999 49.1779 59.1318 48.3281 58.085 48.3281H57.4467V44.5786H58.085C59.1318 44.5786 59.9999 43.7287 59.9999 42.7039V35.205C59.9999 34.1801 59.1318 33.3303 58.085 33.3303C57.0383 33.3303 56.1701 34.1801 56.1701 35.205V40.8292H37.0212V24.5816H56.1701V27.7061C56.1701 28.7309 57.0383 29.5808 58.085 29.5808ZM39.5744 44.5786H53.6169V48.3281H39.5744V44.5786ZM37.0979 20.8321C37.4296 15.9578 41.5404 12.0834 46.5957 12.0834C51.6509 12.0834 55.7617 15.9578 56.0935 20.8321H37.0979Z" fill="#86C232"/>
</svg>
