<svg width="60" height="60" viewBox="0 0 60 60" fill="none" xmlns="http://www.w3.org/2000/svg">
<path d="M58.0849 5.83979H57.4465V2.71559C57.4465 1.69077 56.5783 0.841064 55.5314 0.841064C54.4846 0.841064 53.6163 1.69077 53.6163 2.71559V5.83979H9.56914C8.90521 5.83979 8.26684 6.18973 7.93489 6.73954L6.32621 9.38886L3.26216 6.38958C2.52156 5.66481 1.29595 5.66481 0.55534 6.38958C-0.185113 7.11449 -0.185113 8.31414 0.55534 9.0389L4.28344 12.688L0.274485 19.2364C-0.108432 19.8612 -0.0830255 20.636 0.325605 21.2608L5.43253 28.7589C5.79006 29.2588 6.37731 29.5837 7.01567 29.5837H9.7479L8.5477 34.8574C8.31796 35.8572 8.95633 36.8568 10.0032 37.0818C11.0246 37.3067 12.0459 36.6568 12.2758 35.6572L13.6546 29.5837H22.4897L18.251 48.329H9.41593L10.616 42.9553C10.8459 41.9556 10.2075 40.9558 9.16066 40.7308C8.1392 40.506 7.11776 41.1308 6.88803 42.1555C6.88803 42.1555 5.15949 49.7692 5.15172 49.8034C5.12415 49.9249 5.10058 50.0786 5.10058 50.2035V57.7016C5.10058 58.7263 5.96883 59.5761 7.01567 59.5761H21.0597C24.226 59.5761 26.805 57.0517 26.805 53.9525C26.805 51.2282 24.7878 48.9288 22.1577 48.4289L24.1495 39.5812H31.9375C34.6186 39.5812 37.0188 38.1315 38.2189 35.7821L41.3853 29.5837H44.0409C47.2071 29.5837 49.7862 27.0594 49.7862 23.9602C49.7862 23.3103 49.6841 22.6605 49.4542 22.0857H58.0849C59.1317 22.0857 60 21.2358 60 20.2111V7.71431C60 6.6895 59.1317 5.83979 58.0849 5.83979ZM22.9748 53.9525C22.9748 54.9772 22.1066 55.8271 21.0597 55.8271H8.93077V52.078H21.0597C22.1066 52.078 22.9748 52.9277 22.9748 53.9525ZM31.9119 9.58884H35.7421V18.3366H31.9119V9.58884ZM24.2515 9.58884H28.0817V18.3366H24.2515V9.58884ZM5.27935 18.3366L10.6416 9.58884H20.4213V18.3366H5.27935ZM34.7973 34.0826C34.2611 35.1573 33.1631 35.8322 31.9375 35.8322H25.0175L26.4219 29.5837H29.3585V30.2086C29.3585 31.2333 30.2267 32.0831 31.2736 32.0831C32.3204 32.0831 33.1887 31.2333 33.1887 30.2086V29.5837H37.0955L34.7973 34.0826ZM44.0409 25.8347H8.03711L5.48365 22.0857H44.0409C45.0877 22.0857 45.956 22.9354 45.956 23.9602C45.956 24.9848 45.0877 25.8347 44.0409 25.8347ZM56.1698 18.3366H39.5723V9.58884H56.1698V18.3366Z" fill="#86C232"/>
</svg>
