<svg width="76" height="57" viewBox="0 0 76 57" fill="none" xmlns="http://www.w3.org/2000/svg">
<path d="M15.7757 0.140129C12.3361 0.515354 8.66209 2.14132 6.08244 4.43955C1.4547 8.56699 -0.734095 14.5236 0.219594 20.4021C0.657353 23.1537 1.73612 25.8116 3.22137 27.9535C4.31577 29.5012 6.75471 31.8151 8.33377 32.7844C10.5538 34.1602 13.2898 35.1139 15.76 35.3954L16.7606 35.5048L16.6668 37.162C16.4792 40.3983 15.3223 43.5564 12.8521 47.5119C12.3361 48.3718 12.0234 49.0284 12.0234 49.3255C12.0234 49.732 12.4768 50.2635 15.2128 53.0308C16.9639 54.7975 18.5898 56.314 18.8243 56.4078C19.5123 56.6736 20.1064 56.2671 22.1857 54.1252C28.8928 47.1992 33.4111 38.1313 35.0058 28.3756C35.7719 23.654 35.7406 17.6036 34.9276 14.2579C32.6763 4.95548 24.8279 -0.829193 15.7757 0.140129ZM20.8881 2.87613C25.9536 3.89235 30.2373 7.87908 32.0196 13.1791C32.817 15.5555 33.0202 17.1346 33.0202 20.9962C33.0359 24.6859 32.8795 26.4057 32.2542 29.595C31.0034 35.88 28.4081 41.8679 24.5465 47.3399C23.4521 48.8877 21.0757 51.7019 19.9344 52.8119L19.2152 53.5154L17.0264 51.3267L14.8376 49.1379L15.4004 48.1998C18.2615 43.4783 19.778 37.7561 19.0432 34.3791C18.8087 33.2535 18.5742 33.1128 16.7294 32.9564C14.9002 32.7844 13.4774 32.4561 11.9765 31.862C5.44143 29.2042 1.51724 22.1531 2.72107 15.2428C3.89364 8.55135 9.22492 3.47023 15.9633 2.64161C17.3391 2.46964 19.3559 2.56344 20.8881 2.87613Z" fill="#86C232"/>
<path d="M55.7375 0.140518C51.7664 0.547009 47.7328 2.59509 44.7936 5.69067C37.5705 13.3046 38.6493 25.5931 47.0918 31.9249C49.4838 33.7229 52.0166 34.786 54.9871 35.255L56.6756 35.5208V36.6465C56.6756 39.4763 55.4874 43.0878 53.4706 46.4648C52.0322 48.8412 51.9853 48.9506 51.9853 49.3571C51.9853 49.6542 52.767 50.5453 55.2372 53.0155C57.0195 54.8135 58.6299 56.3456 58.8331 56.4238C59.4585 56.674 60.1151 56.2206 62.0694 54.2037C64.4302 51.7648 65.6027 50.3421 67.385 47.653C72.0909 40.5863 74.7488 32.8943 75.4523 24.358C75.6712 21.7001 75.5461 17.7134 75.1865 15.5715C74.2172 9.77121 70.8402 4.81516 66.0874 2.20424C63.8673 0.969131 61.9912 0.4063 59.349 0.140518C57.5824 -0.0470963 57.6293 -0.0470963 55.7375 0.140518ZM60.8968 2.89214C62.9918 3.29863 65.3682 4.4712 67.1974 5.98772C69.5113 7.8951 71.575 11.2565 72.388 14.3989C73.3573 18.1981 73.2635 24.7019 72.1691 30.0176C70.4494 38.2881 66.6346 45.5424 60.4278 52.312L59.2552 53.594L57.0352 51.3739L54.8307 49.1382L55.5186 47.9657C57.1602 45.214 58.4266 42.009 58.9425 39.2261C59.224 37.7096 59.2552 35.2707 59.0051 34.2857C58.7393 33.2382 58.4735 33.0819 56.7068 32.9412C52.7514 32.6441 49.5464 31.1432 46.7791 28.3134C41.4791 22.8883 41.057 14.2426 45.8098 8.30159C47.4826 6.2066 49.39 4.78389 51.9853 3.68949C54.7838 2.50129 57.6762 2.25114 60.8968 2.89214Z" fill="#86C232"/>
</svg>
