<svg width="60" height="73" viewBox="0 0 60 73" fill="none" xmlns="http://www.w3.org/2000/svg">
<g opacity="0.7">
<path d="M57.6923 29.2308C58.9538 29.2308 60 28.1845 60 26.9231V17.6923C60 14.7384 57.5693 12.3077 54.6154 12.3077H53.8462V5.38462C53.8462 4.12298 52.7999 3.07692 51.5385 3.07692C50.277 3.07692 49.2308 4.12298 49.2308 5.38462V12.3077H44.6154V8.46154C44.6154 7.19991 43.5691 6.15385 42.3077 6.15385C41.0462 6.15385 40 7.19991 40 8.46154V12.3077H13.8462V6.92308C13.8462 3.10772 10.7384 0 6.92308 0C3.10772 0 0 3.10772 0 6.92308V42.3077C0 42.6769 0.0923999 43.0153 0.246215 43.323L3.07692 49.0154V66.9231C3.07692 69.8768 5.50763 72.3077 8.46154 72.3077H51.5385C54.4924 72.3077 56.9231 69.8768 56.9231 66.9231V49.0154L59.7538 43.3229C59.9076 43.0153 60 42.6769 60 42.3077V36.1538C60 34.8922 58.9538 33.8462 57.6923 33.8462C56.4309 33.8462 55.3846 34.8922 55.3846 36.1538V41.7539L52.5539 47.4461C52.4001 47.7537 52.3077 48.0923 52.3077 48.4615V66.9231C52.3077 67.3539 51.9693 67.6923 51.5385 67.6923H8.46154C8.03074 67.6923 7.69231 67.3539 7.69231 66.9231V48.4615C7.69231 48.0923 7.59991 47.7537 7.44609 47.4461L4.61538 41.7539V17.6923C4.61538 17.2615 4.95382 16.9231 5.38462 16.9231H54.6154C55.0462 16.9231 55.3846 17.2615 55.3846 17.6923V26.9231C55.3846 28.1845 56.4309 29.2308 57.6923 29.2308ZM9.23077 12.3077H5.38462C5.1076 12.3077 4.8616 12.3385 4.61538 12.3999V6.92308C4.61538 5.66145 5.66163 4.61538 6.92308 4.61538C8.18452 4.61538 9.23077 5.66145 9.23077 6.92308V12.3077Z" fill="#86C232"/>
<path d="M47.6922 33.077V23.8463C47.6922 22.5722 46.6586 21.5386 45.3845 21.5386H14.6153C13.3413 21.5386 12.3076 22.5722 12.3076 23.8463V33.077C12.3076 34.3511 13.3413 35.3847 14.6153 35.3847H45.3845C46.6586 35.3847 47.6922 34.3511 47.6922 33.077ZM43.0768 30.7693H16.923V26.154H43.0768V30.7693Z" fill="#86C232"/>
<path d="M42.3078 40H17.6925C16.4184 40 15.3848 41.0337 15.3848 42.3077C15.3848 43.5817 16.4184 44.6154 17.6925 44.6154H42.3078C43.5819 44.6154 44.6155 43.5817 44.6155 42.3077C44.6155 41.0337 43.5819 40 42.3078 40Z" fill="#86C232"/>
<path d="M42.3078 49.231H17.6925C16.4184 49.231 15.3848 50.2646 15.3848 51.5386C15.3848 52.8127 16.4184 53.8463 17.6925 53.8463H42.3078C43.5819 53.8463 44.6155 52.8127 44.6155 51.5386C44.6155 50.2646 43.5819 49.231 42.3078 49.231Z" fill="#86C232"/>
<path d="M42.3078 58.4614H17.6925C16.4184 58.4614 15.3848 59.4951 15.3848 60.7691C15.3848 62.0431 16.4184 63.0768 17.6925 63.0768H42.3078C43.5819 63.0768 44.6155 62.0431 44.6155 60.7691C44.6155 59.4951 43.5819 58.4614 42.3078 58.4614Z" fill="#86C232"/>
</g>
</svg>
